<svg width="64" height="58" viewBox="0 0 64 58" fill="none" xmlns="http://www.w3.org/2000/svg">
<path d="M58.6752 0H5.3247C2.38867 0 0 2.38916 0 5.32567V42.0282C0 44.9648 2.38867 47.3539 5.3247 47.3539H23.4282L22.2636 55.9515H21.2587C20.7412 55.9515 20.3212 56.371 20.3212 56.889C20.3212 57.4071 20.7412 57.8265 21.2587 57.8265H42.7411C43.2587 57.8265 43.6786 57.4071 43.6786 56.889C43.6786 56.371 43.2587 55.9515 42.7411 55.9515H41.7362L40.5717 47.3539H58.6757C61.6117 47.3539 63.9999 44.9648 63.9999 42.0282V5.32567C63.9999 2.38916 61.6112 0 58.6752 0V0ZM5.3247 1.875H58.6752C60.5775 1.875 62.1249 3.42284 62.1249 5.32567V34.8974H1.875V5.32567C1.875 3.42284 3.42236 1.875 5.3247 1.875ZM58.6752 45.4789H30.9858C30.4677 45.4789 30.0483 45.8988 30.0483 46.4164C30.0483 46.9345 30.4677 47.3539 30.9858 47.3539H38.6791L39.8442 55.9515H24.1557L25.3203 47.3539H26.8017C27.3193 47.3539 27.7392 46.9345 27.7392 46.4164C27.7392 45.8988 27.3193 45.4789 26.8017 45.4789H5.3247C3.42236 45.4789 1.875 43.9311 1.875 42.0282V36.7724H62.1249V42.0282C62.1249 43.9311 60.5775 45.4789 58.6752 45.4789Z" fill="#C3CEE2"/>
</svg>
