<svg width="64" height="58" viewBox="0 0 64 58" fill="none" xmlns="http://www.w3.org/2000/svg">
<path d="M58.6745 0H5.32516C2.38866 0 0 2.38915 0 5.32516V42.029C0 43.4968 0.596676 44.8274 1.56054 45.7917C1.56103 45.7917 1.56103 45.7922 1.56103 45.7922C1.59179 45.823 1.62353 45.8518 1.65478 45.8816C1.68554 45.9109 1.71532 45.9406 1.74657 45.969C1.74706 45.9695 1.74804 45.9704 1.74901 45.9709C2.69481 46.8298 3.94968 47.3542 5.32468 47.3542H23.4286L22.2635 55.9518H21.2587C20.7411 55.9518 20.3212 56.3712 20.3212 56.8893C20.3212 57.4069 20.7411 57.8268 21.2587 57.8268H42.741C43.259 57.8268 43.6785 57.4069 43.6785 56.8893C43.6785 56.3712 43.259 55.9518 42.741 55.9518H41.7361L40.5715 47.3542H58.6754C60.0504 47.3542 61.3053 46.8298 62.2511 45.9709C62.2521 45.9704 62.2526 45.9699 62.2535 45.969C62.2848 45.9406 62.3146 45.9109 62.3453 45.8816C62.3766 45.8518 62.4083 45.823 62.4386 45.7922C62.4391 45.7922 62.4391 45.7917 62.4396 45.7917C63.403 44.8274 64.0001 43.4968 64.0001 42.029V5.32516C63.9996 2.38915 61.611 0 58.6745 0ZM5.32516 1.87499H58.6745C60.5768 1.87499 62.1246 3.42283 62.1246 5.32516V34.8973H60.5055V5.68844C60.5055 4.499 59.5377 3.53074 58.3478 3.53074H5.65182C4.46238 3.53074 3.49412 4.499 3.49412 5.68844V34.8973H1.87499V5.32516C1.87499 3.42283 3.42283 1.87499 5.32516 1.87499ZM39.844 55.9518H24.1556L25.3202 47.3542H38.679L39.844 55.9518ZM39.4983 45.4787H5.32516C4.50974 45.4787 3.76072 45.1941 3.16941 44.7199C3.15721 44.7097 3.14402 44.6999 3.13182 44.6902C3.12693 44.6863 3.12254 44.6819 3.11766 44.678C2.35887 44.0442 1.87499 43.092 1.87499 42.0281V36.7722H52.3415C52.8591 36.7722 53.279 36.3528 53.279 35.8347C53.279 35.3167 52.8591 34.8973 52.3415 34.8973H23.3568V12.3266C23.3568 11.809 22.9369 11.3891 22.4193 11.3891C21.9017 11.3891 21.4818 11.809 21.4818 12.3266V34.8973H5.36911V5.68844C5.36911 5.53268 5.49606 5.40573 5.65182 5.40573H21.4818V8.43745C21.4818 8.95551 21.9017 9.37494 22.4193 9.37494C22.9374 9.37494 23.3568 8.95551 23.3568 8.43745V5.40573H58.3478C58.5036 5.40573 58.6305 5.53268 58.6305 5.68844V34.8973H56.4455C55.9279 34.8973 55.508 35.3172 55.508 35.8347C55.508 36.3528 55.9279 36.7722 56.4455 36.7722H62.1246V42.0286C62.1246 43.092 61.6408 44.0447 60.882 44.678C60.8776 44.6819 60.8727 44.6863 60.8678 44.6902C60.8556 44.7004 60.8424 44.7097 60.8302 44.7199C60.2389 45.1941 59.4899 45.4792 58.6745 45.4792H39.4983V45.4787Z" fill="#C3CEE2"/>
</svg>
