<svg width="62" height="64" viewBox="0 0 62 64" fill="none" xmlns="http://www.w3.org/2000/svg">
<path d="M61.147 55.9521C61.1465 55.9409 61.147 55.9297 61.1465 55.9185L60.4858 47.2993C60.4126 46.3115 59.8628 45.4155 59.0146 44.9033L58.8643 44.8125L58.4717 41.9312C58.979 41.5093 59.394 40.9805 59.6816 40.3789C59.6919 40.3579 59.7017 40.3369 59.7104 40.3154C59.9775 39.7349 60.1279 39.0894 60.1279 38.4097V34.9395C60.1279 32.9722 58.5269 31.3721 56.5596 31.3721H54.5337C52.8657 31.3721 51.4619 32.5225 51.0728 34.0708C51.0576 34.1001 51.0435 34.1299 51.0312 34.1611C50.9668 34.3237 50.9521 34.4927 50.9775 34.6533C50.9702 34.7476 50.9653 34.8428 50.9653 34.939V38.4097C50.9653 40.0215 51.8032 41.4404 53.0659 42.2568L52.8052 44.853C52.7515 44.8945 52.7012 44.9409 52.6577 44.9932L46.9917 51.7773L43.0664 51.7632C42.9907 51.7622 42.9229 51.771 42.853 51.7871C42.1567 51.9473 41.5391 52.2739 41.0361 52.7197V51.438C41.0361 48.8877 39.4126 46.6265 36.9961 45.8115L35.3755 45.2661C35.1123 45.1782 34.874 45.0273 34.6841 44.8276C34.3765 44.5068 34.207 44.083 34.207 43.6353V41.8901L34.7583 41.5547C35.7236 40.9663 36.3237 39.8979 36.3237 38.7666V35.896C36.3237 35.8931 36.3237 35.8901 36.3237 35.8872V33.3833C36.3237 31.3882 34.7017 29.7646 32.708 29.7646H29.3931C27.3994 29.7646 25.7778 31.3882 25.7778 33.3833V35.542V35.5449V38.7666C25.7778 39.8979 26.3774 40.9663 27.3433 41.5547L27.895 41.8911V43.6357C27.895 44.1133 27.6943 44.5737 27.3462 44.8984C27.167 45.0654 26.9585 45.189 26.7246 45.2671L25.106 45.8115C22.6895 46.6265 21.0659 48.8872 21.0659 51.4385V52.792C20.5493 52.3096 19.9033 51.9561 19.1704 51.7876C19.1006 51.7715 19.0332 51.7632 18.957 51.7637L15.0317 51.7773L9.36572 44.9937C9.32227 44.9414 9.27246 44.8945 9.21826 44.853L8.95752 42.2568C10.2202 41.4404 11.0586 40.0215 11.0586 38.4097V34.9395C11.0586 34.8428 11.0532 34.748 11.0459 34.6533C11.0713 34.4927 11.0566 34.3237 10.9927 34.1616C10.98 34.1304 10.9663 34.1001 10.9507 34.0713C10.562 32.5225 9.1582 31.3721 7.48975 31.3721H5.46484C3.49707 31.3721 1.89648 32.9727 1.89648 34.9395V38.4097C1.89648 39.0898 2.04639 39.7349 2.31348 40.3154C2.32227 40.3369 2.33203 40.3584 2.34229 40.3794C2.62988 40.9805 3.04492 41.5093 3.55225 41.9312L3.15967 44.813L3.00977 44.9038C2.16162 45.416 1.61133 46.312 1.53857 47.2974L0.87793 55.9189C0.876953 55.9302 0.877441 55.9414 0.876953 55.9526C0.876465 55.9653 0.875 55.9775 0.875 55.9907V58.375C0.875 61.4766 3.39941 64 6.50244 64H55.5215C58.6245 64 61.1489 61.4766 61.1489 58.3745V55.9902C61.1489 55.9771 61.1475 55.9648 61.147 55.9521ZM54.5337 33.2471H56.5596C57.4932 33.2471 58.2529 34.0063 58.2529 34.9395V38.4072L57.2773 37.7227V36.8467C57.2773 36.1045 56.8311 35.4482 56.1406 35.1753L53.1362 33.9863C53.4414 33.5405 53.9536 33.2471 54.5337 33.2471ZM52.8403 35.8857L55.4023 36.8994V37.7627C55.4023 38.3477 55.688 38.8979 56.1675 39.2344L57.5615 40.2124C57.0659 40.7656 56.3462 41.1143 55.5464 41.1143C54.0542 41.1143 52.8403 39.9009 52.8403 38.4097V35.8857ZM55.5469 42.9893C55.9463 42.9893 56.334 42.9375 56.7036 42.8408L56.8545 43.9478C56.168 43.8081 55.4619 43.812 54.7798 43.9585L54.8818 42.9404C55.0991 42.9722 55.3208 42.9893 55.5469 42.9893ZM43.1772 53.6387L47.4258 53.6538H47.4292C47.707 53.6538 47.9707 53.5308 48.1484 53.3174L54.02 46.2876C55.063 45.5698 56.4219 45.5269 57.5112 46.1855L58.0449 46.5078C58.374 46.707 58.5874 47.0547 58.6162 47.4404L59.1997 55.0527H54.6323V51.7715L55.1963 51.1792C55.5537 50.8042 55.5391 50.2109 55.1641 49.8535C54.7896 49.4966 54.1958 49.5112 53.8389 49.8857L48.918 55.0527H41.6597C41.8975 54.373 42.4536 53.8379 43.1772 53.6387ZM36.3975 47.5884C38.0508 48.146 39.1611 49.6934 39.1611 51.438V55.0527H32.5303L33.8047 53.7686C34.0493 53.522 34.1377 53.1602 34.0337 52.8286L32.1875 46.9297C32.7378 46.8506 33.2798 46.7217 33.811 46.5444C34.1055 46.7583 34.4331 46.9282 34.7798 47.0439L36.3975 47.5884ZM29.77 42.9941C30.1797 43.1699 30.6152 43.2583 31.0513 43.2583C31.4868 43.2583 31.9229 43.1699 32.3325 42.9941V43.6357C32.3325 44.0913 32.4175 44.5352 32.5786 44.9482C32.0654 45.0703 31.5425 45.1396 31.0132 45.1514C30.4995 45.1621 29.9902 45.1187 29.4893 45.0254C29.6719 44.5889 29.77 44.1162 29.77 43.6357V42.9941ZM30.9917 49.3857L32.0757 52.8491L30.9805 53.9521L30.0063 52.8667L30.9917 49.3857ZM29.3936 31.6396H32.7085C33.6685 31.6396 34.4492 32.4219 34.4492 33.3833V34.5972L29.9233 33.1411C29.6846 33.0645 29.4248 33.0864 29.2021 33.2021L27.6533 34.0107V33.3833C27.6533 32.4219 28.4341 31.6396 29.3936 31.6396ZM27.6533 36.126L29.7222 35.0464L34.4492 36.5669V38.7666C34.4492 39.2485 34.1938 39.7031 33.7832 39.9536L31.772 41.1792C31.3271 41.4497 30.7749 41.4497 30.3306 41.1792L28.3193 39.9536C27.9087 39.7031 27.6533 39.2485 27.6533 38.7666V36.126ZM25.7046 47.5889L27.3203 47.0449C27.6226 46.9443 27.9058 46.8057 28.1675 46.6313C28.6797 46.7852 29.2017 46.895 29.73 46.959L28.0615 52.853C27.9736 53.1626 28.0508 53.4951 28.2656 53.7344L29.4487 55.0527H22.9414V51.438C22.9414 49.6929 24.0518 48.1455 25.7046 47.5889ZM6.47754 41.1143C5.67773 41.1143 4.9585 40.7656 4.4624 40.2124L5.85693 39.2344C6.33594 38.8979 6.62207 38.3477 6.62207 37.7627V36.8994L9.18359 35.8857V38.4097C9.18359 39.9009 7.96973 41.1143 6.47754 41.1143ZM5.46484 33.2471H7.49023C8.07031 33.2471 8.58301 33.5405 8.88818 33.9863L5.88379 35.1753C5.19336 35.4482 4.74707 36.1045 4.74707 36.8467V37.7227L3.77148 38.4072V34.9395C3.77148 34.0063 4.53076 33.2471 5.46484 33.2471ZM6.47754 42.9893C6.70312 42.9893 6.92529 42.9722 7.14209 42.9404L7.24463 43.9585C6.56201 43.812 5.85645 43.8086 5.16992 43.9482L5.3208 42.8413C5.69043 42.9375 6.07812 42.9893 6.47754 42.9893ZM3.4082 47.438C3.43652 47.0547 3.6499 46.707 3.97949 46.5078L4.5127 46.1855C5.60254 45.5269 6.96143 45.5703 8.00391 46.2876L13.8755 53.3174C14.0537 53.5308 14.3174 53.6538 14.5952 53.6538H14.5981L18.8467 53.6387C19.5703 53.8379 20.127 54.373 20.3643 55.0527H13.1064L8.18506 49.8857C7.82812 49.5107 7.23486 49.4966 6.85986 49.8535C6.48486 50.2104 6.4707 50.8042 6.82764 51.1792L7.3916 51.7715V55.0527H2.82471L3.4082 47.438ZM59.2739 58.3745C59.2739 60.4424 57.5908 62.125 55.522 62.125H6.50244C4.43359 62.125 2.75 60.4424 2.75 58.3745V56.9277H7.3916V57.1572C7.3916 58.125 7.75684 59.0464 8.41943 59.7524C8.604 59.9487 8.85303 60.0479 9.10303 60.0479C9.33301 60.0479 9.56348 59.9639 9.74463 59.7939C10.1221 59.4395 10.1406 58.8462 9.78613 58.4683C9.45117 58.1118 9.2666 57.6465 9.2666 57.1572V53.7402L11.7773 56.376V56.8252C11.7773 58.8447 13.4209 60.4878 15.4414 60.4878H19.3901C19.9077 60.4878 20.3276 60.0684 20.3276 59.5503C20.3276 59.0327 19.9077 58.6128 19.3901 58.6128H15.4414C14.4932 58.6128 13.7153 57.8716 13.6567 56.9385H21.4287C21.4746 56.9385 21.5195 56.9341 21.564 56.9277H40.4604C40.5044 56.9341 40.5498 56.9385 40.5957 56.9385H48.5586C48.4995 57.8716 47.7222 58.6128 46.7739 58.6128H23.4033C22.8857 58.6128 22.4658 59.0327 22.4658 59.5503C22.4658 60.0684 22.8857 60.4878 23.4033 60.4878H46.7739C48.7939 60.4878 50.4375 58.8447 50.4375 56.8252V56.2158C50.4375 56.2031 50.436 56.1904 50.4355 56.1777L52.7573 53.7402V57.1572C52.7573 57.6465 52.5732 58.1118 52.2383 58.4683C51.8838 58.8462 51.9023 59.4395 52.2798 59.7939C52.4604 59.9639 52.6914 60.0479 52.9214 60.0479C53.1714 60.0479 53.4204 59.9487 53.605 59.7524C54.2676 59.0464 54.6323 58.125 54.6323 57.1572V56.9277H59.2739V58.3745Z" fill="#C3CEE2"/>
<path d="M4.57031 27.8691H4.72754C5.38379 29.2603 6.78467 30.1523 8.32959 30.1523C9.87598 30.1523 11.2764 29.2598 11.9307 27.8691H25.3892C26.5576 27.8691 27.5503 27.1152 27.9136 26.0693C28.7104 26.6499 29.6841 26.9829 30.7124 26.9829C31.98 26.9829 33.1646 26.478 34.0366 25.6245C34.2432 26.895 35.3447 27.8691 36.6729 27.8691H50.1318C50.7876 29.2598 52.188 30.1523 53.7324 30.1523C55.2778 30.1523 56.6787 29.2598 57.3345 27.8691H57.4917C58.9658 27.8691 60.1655 26.6699 60.1655 25.1958V10.4624C60.1655 8.98828 58.9658 7.78906 57.4917 7.78906H49.8926C49.3745 7.78906 48.9551 8.20898 48.9551 8.72656C48.9551 9.24463 49.3745 9.66406 49.8926 9.66406H57.4917C57.9321 9.66406 58.2905 10.0225 58.2905 10.4624V25.1963C58.2905 25.6362 57.9321 25.9941 57.4917 25.9941H57.2217C56.5449 25.9941 55.9341 26.3931 55.665 27.0112C55.3301 27.7803 54.5713 28.2773 53.7324 28.2773C52.894 28.2773 52.1362 27.7803 51.8008 27.0107C51.5317 26.3936 50.9209 25.9941 50.2441 25.9941H36.6729C36.2324 25.9941 35.874 25.6362 35.874 25.1963V24.1201H43.7646C45.4824 24.1201 46.8799 22.7227 46.8799 21.0054V3.11475C46.8804 1.39746 45.4824 0 43.7646 0H17.6602C15.9419 0 14.5444 1.39746 14.5444 3.11475V7.78906H4.57031C3.09619 7.78906 1.89648 8.98828 1.89648 10.4624V11.793C1.89648 12.3105 2.31641 12.7305 2.83398 12.7305C3.35205 12.7305 3.77148 12.3105 3.77148 11.793V10.4624C3.77148 10.0225 4.12988 9.66406 4.57031 9.66406H14.5444V21.0054C14.5444 22.7227 15.9419 24.1201 17.6602 24.1201H26.188V25.1963C26.188 25.6362 25.8296 25.9941 25.3892 25.9941H11.8188C11.1416 25.9941 10.5303 26.3931 10.2607 27.0117C9.92676 27.7803 9.16895 28.2773 8.32959 28.2773C7.49072 28.2773 6.73193 27.7803 6.39697 27.0107C6.12793 26.3936 5.51709 25.9941 4.84033 25.9941H4.57031C4.12988 25.9941 3.77148 25.6362 3.77148 25.1963V15.7412C3.77148 15.2231 3.35205 14.8037 2.83398 14.8037C2.31641 14.8037 1.89648 15.2231 1.89648 15.7412V25.1963C1.89648 26.6699 3.09619 27.8691 4.57031 27.8691ZM16.4194 21.0054V3.11475C16.4194 2.43115 16.9761 1.875 17.6602 1.875H43.7646C44.4487 1.875 45.0049 2.43115 45.0049 3.11475V21.0054C45.0049 21.689 44.4487 22.2451 43.7646 22.2451H35.0874C34.9785 22.2451 34.8711 22.2554 34.7661 22.2734C34.7573 22.2749 34.748 22.2764 34.7393 22.2783C34.1294 22.3916 33.6055 22.7974 33.353 23.3774C32.896 24.4287 31.8594 25.1079 30.7124 25.1079C29.5659 25.1079 28.5293 24.4287 28.0718 23.3774C27.7725 22.6895 27.0918 22.2451 26.3374 22.2451H17.6602C16.9761 22.2451 16.4194 21.689 16.4194 21.0054Z" fill="#23C4B3"/>
<path d="M20.3193 7.21924H40.5957C41.1133 7.21924 41.5332 6.7998 41.5332 6.28174C41.5332 5.76367 41.1133 5.34424 40.5957 5.34424H20.3193C19.8018 5.34424 19.3818 5.76367 19.3818 6.28174C19.3818 6.7998 19.8018 7.21924 20.3193 7.21924Z" fill="#23C4B3"/>
<path d="M20.3193 12.0361H40.5957C41.1133 12.0361 41.5332 11.6167 41.5332 11.0986C41.5332 10.5811 41.1133 10.1611 40.5957 10.1611H20.3193C19.8018 10.1611 19.3818 10.5811 19.3818 11.0986C19.3818 11.6167 19.8018 12.0361 20.3193 12.0361Z" fill="#23C4B3"/>
<path d="M32.1992 15.916C32.1992 15.3979 31.7793 14.9785 31.2617 14.9785H20.3193C19.8018 14.9785 19.3818 15.3979 19.3818 15.916C19.3818 16.4336 19.8018 16.8535 20.3193 16.8535H31.2617C31.7793 16.8535 32.1992 16.4336 32.1992 15.916Z" fill="#23C4B3"/>
</svg>
