<svg width="62" height="64" viewBox="0 0 62 64" fill="none" xmlns="http://www.w3.org/2000/svg">
<path d="M50.1357 35.4551V40.4297C50.1357 40.9478 50.5557 41.3672 51.0732 41.3672C51.5908 41.3672 52.0107 40.9478 52.0107 40.4297V35.4551C52.0107 32.9761 49.9941 30.96 47.5156 30.96H31.9692V23.5742C31.9692 23.0562 31.5493 22.6367 31.0317 22.6367C30.5137 22.6367 30.0942 23.0562 30.0942 23.5742V30.96H14.605C12.1265 30.96 10.1099 32.9761 10.1099 35.4551V40.4258C10.1099 40.9438 10.5298 41.3633 11.0474 41.3633C11.5654 41.3633 11.9849 40.9438 11.9849 40.4258V35.4551C11.9849 34.0103 13.1602 32.835 14.605 32.835H47.5156C48.9604 32.835 50.1357 34.0103 50.1357 35.4551Z" fill="#23C4B3"/>
<path d="M22.8511 14.5635C23.3296 14.3657 23.5571 13.8174 23.3594 13.3394C22.9443 12.335 22.7339 11.2695 22.7339 10.1729C22.7339 5.59717 26.4565 1.875 31.0317 1.875C35.6069 1.875 39.3291 5.59717 39.3291 10.1729C39.3291 12.0083 38.729 13.7061 37.7158 15.082C37.5957 14.9351 37.4634 14.7944 37.3193 14.6616C36.5581 13.9634 35.54 13.5791 34.4526 13.5791H27.6328C26.5449 13.5791 25.5273 13.9639 24.7686 14.6611C24.2124 15.1699 23.8315 15.7974 23.6602 16.4775C23.6548 16.4946 23.6504 16.5122 23.646 16.5293C23.6445 16.5347 23.6431 16.5396 23.6416 16.5444C23.6411 16.5469 23.6416 16.5488 23.6411 16.5508C23.5728 16.8564 23.6577 17.1885 23.8975 17.4238C25.8115 19.3076 28.3457 20.3452 31.0317 20.3452C33.7778 20.3452 36.2715 19.2495 38.1035 17.4746C38.1582 17.4316 38.2085 17.3838 38.2524 17.3301C40.0757 15.4907 41.2041 12.9614 41.2041 10.1729C41.2041 4.56348 36.6406 0 31.0317 0C25.4224 0 20.8589 4.56348 20.8589 10.1724C20.8589 11.5161 21.1172 12.8223 21.6265 14.0552C21.8242 14.5337 22.3726 14.7612 22.8511 14.5635ZM25.6621 16.4956C25.7583 16.335 25.8838 16.1821 26.0361 16.043C26.4492 15.6631 27.0161 15.4541 27.6328 15.4541H34.4526C35.0693 15.4541 35.6372 15.6631 36.0503 16.0425C36.1973 16.1777 36.3188 16.3247 36.4141 16.4795C34.9639 17.7192 33.0845 18.4702 31.0317 18.4702C29.0444 18.4702 27.1606 17.772 25.6621 16.4956Z" fill="#C3CEE2"/>
<path d="M29.9302 11.8901C30.2734 12.0991 30.6582 12.2041 31.043 12.2041C31.4277 12.2041 31.813 12.0991 32.1558 11.8901L33.1958 11.2559C33.8291 10.8701 34.2222 10.1694 34.2222 9.42725V6.64209C34.2222 5.36084 33.1807 4.31787 31.8999 4.31787H30.186C28.9053 4.31787 27.8633 5.36084 27.8633 6.64209V9.42725C27.8633 10.1694 28.2568 10.8701 28.8901 11.2559L29.9302 11.8901ZM29.7388 6.64209C29.7388 6.39453 29.9395 6.19287 30.186 6.19287H31.8999C32.147 6.19287 32.3477 6.39453 32.3477 6.64209V9.42725C32.3477 9.52002 32.2988 9.60693 32.2202 9.65479L31.1802 10.2891C31.0957 10.3403 30.9907 10.3403 30.9062 10.2891L29.8662 9.65479C29.7876 9.60693 29.7388 9.51953 29.7388 9.42725V6.64209Z" fill="#C3CEE2"/>
<path d="M11.0474 43.6548C5.43848 43.6548 0.875 48.2183 0.875 53.8271C0.875 56.6333 2.0166 59.1768 3.85986 61.019C3.90137 61.0674 3.94727 61.1118 3.99805 61.1509C5.82812 62.9131 8.3125 64 11.0474 64C13.7446 64 16.2856 62.9551 18.2026 61.0581C18.4155 60.8472 18.5059 60.5596 18.4736 60.2837C18.4731 60.2817 18.4731 60.2803 18.4731 60.2788C18.4692 60.2456 18.4629 60.2124 18.4556 60.1802C18.4551 60.1782 18.4551 60.1763 18.4546 60.1743C18.4536 60.1714 18.4526 60.1685 18.4521 60.1655C18.4468 60.1455 18.4414 60.126 18.4355 60.106C18.2617 59.4395 17.8838 58.8218 17.335 58.3164C16.5737 57.6182 15.5557 57.2334 14.4688 57.2334H7.64844C6.56055 57.2334 5.54297 57.6187 4.78418 58.3159C4.63428 58.4531 4.49805 58.5991 4.37402 58.752C3.35449 57.3735 2.74951 55.6699 2.74951 53.8271C2.74951 49.252 6.47217 45.5298 11.0474 45.5298C15.6226 45.5298 19.3447 49.252 19.3447 53.8271C19.3447 54.8657 19.1558 55.8779 18.7832 56.8354C18.5952 57.3179 18.834 57.8613 19.3164 58.0493C19.7993 58.2373 20.3428 57.998 20.5303 57.5156C20.9878 56.3398 21.2197 55.0991 21.2197 53.8271C21.2202 48.2183 16.6567 43.6548 11.0474 43.6548ZM6.05176 59.6978C6.46484 59.3179 7.03223 59.1089 7.64844 59.1089H14.4688C15.085 59.1089 15.6528 59.3184 16.0664 59.6973C16.2144 59.8335 16.3364 59.9819 16.4321 60.1377C14.9312 61.4224 13.0425 62.125 11.0474 62.125C9.00195 62.125 7.12793 61.3794 5.67969 60.1475C5.77637 59.9878 5.90088 59.8359 6.05176 59.6978Z" fill="#C3CEE2"/>
<path d="M10.2017 47.9727C8.92139 47.9727 7.87939 49.0156 7.87939 50.2974V53.082C7.87939 53.8242 8.27295 54.5249 8.90576 54.9106L9.9458 55.5449C10.2891 55.7539 10.6738 55.8589 11.0591 55.8589C11.4438 55.8589 11.8286 55.7539 12.1719 55.5449L13.2119 54.9106C13.8447 54.5249 14.2383 53.8242 14.2383 53.082V50.2974C14.2383 49.0156 13.1963 47.9727 11.916 47.9727H10.2017ZM12.3633 50.2974V53.082C12.3633 53.1748 12.3145 53.2622 12.2358 53.3101L11.1958 53.9438C11.1113 53.9956 11.0063 53.9956 10.9219 53.9438L9.88184 53.3101C9.80322 53.2622 9.75439 53.1748 9.75439 53.082V50.2974C9.75439 50.0493 9.95508 49.8477 10.2017 49.8477H11.916C12.1626 49.8477 12.3633 50.0493 12.3633 50.2974Z" fill="#C3CEE2"/>
<path d="M51.0732 43.6548C45.4639 43.6548 40.9009 48.2183 40.9009 53.8271C40.9009 56.6333 42.0425 59.1768 43.8857 61.019C43.9268 61.0674 43.9731 61.1118 44.0239 61.1509C45.854 62.9131 48.3384 64 51.0732 64C53.7705 64 56.3066 62.9565 58.2231 61.0615C58.2266 61.0586 58.23 61.0552 58.2334 61.0518C58.2441 61.041 58.2554 61.0312 58.2661 61.0205C58.5913 60.6953 58.627 60.1909 58.3745 59.8257C58.1758 59.2666 57.8315 58.75 57.3604 58.3164C56.5996 57.6182 55.5815 57.2339 54.4941 57.2339H47.6743C46.5864 57.2339 45.5688 57.6187 44.8101 58.3159C44.6602 58.4531 44.5234 58.5991 44.3999 58.752C43.3799 57.3735 42.7754 55.6699 42.7754 53.8276C42.7754 49.2524 46.4976 45.5298 51.0728 45.5298C55.6479 45.5298 59.3706 49.2524 59.3706 53.8276C59.3706 54.8838 59.1748 55.9131 58.7891 56.8853C58.5981 57.3667 58.8335 57.9116 59.3149 58.1025C59.7959 58.293 60.3408 58.0581 60.5317 57.5767C61.0054 56.3833 61.2456 55.1216 61.2456 53.8276C61.2456 48.2183 56.6826 43.6548 51.0732 43.6548ZM46.0776 59.6978C46.4907 59.3179 47.0581 59.1089 47.6743 59.1089H54.4941C55.1108 59.1089 55.6787 59.3184 56.0923 59.6973C56.2402 59.8335 56.3623 59.9819 56.458 60.1382C54.9575 61.4224 53.0698 62.125 51.0732 62.125C49.0273 62.125 47.1538 61.3794 45.7056 60.1475C45.8018 59.9873 45.9263 59.8359 46.0776 59.6978Z" fill="#C3CEE2"/>
<path d="M50.2275 47.9727C48.9473 47.9727 47.9053 49.0156 47.9053 50.2974V53.082C47.9053 53.8242 48.2983 54.5249 48.9316 54.9106L49.9717 55.5449C50.3149 55.7539 50.6997 55.8589 51.0845 55.8589C51.4692 55.8589 51.8545 55.7539 52.1973 55.5449L53.2373 54.9106C53.8706 54.5249 54.2637 53.8242 54.2637 53.082V50.2974C54.2637 49.0156 53.2222 47.9727 51.9414 47.9727H50.2275ZM52.3892 50.2974V53.082C52.3892 53.1748 52.3403 53.2622 52.2617 53.3101L51.2217 53.9438C51.1372 53.9956 51.0322 53.9956 50.9478 53.9438L49.9077 53.3101C49.8291 53.2622 49.7803 53.1748 49.7803 53.082V50.2974C49.7803 50.0493 49.981 49.8477 50.2275 49.8477H51.9419C52.1885 49.8477 52.3892 50.0493 52.3892 50.2974Z" fill="#C3CEE2"/>
</svg>
