<svg width="27" height="13" viewBox="0 0 27 13" fill="none" xmlns="http://www.w3.org/2000/svg">
<path d="M26.494 5.61026C26.4937 5.60995 26.4935 5.6096 26.4931 5.60929L21.1691 0.297459C20.7702 -0.100469 20.1251 -0.0989874 19.7281 0.300932C19.3311 0.700801 19.3327 1.34757 19.7315 1.74555L23.3061 5.31183H1.72765C1.16491 5.31183 0.70874 5.76916 0.70874 6.33333C0.70874 6.89751 1.16491 7.35484 1.72765 7.35484H23.306L19.7316 10.9211C19.3327 11.3191 19.3312 11.9659 19.7281 12.3657C20.1252 12.7657 20.7703 12.7671 21.1691 12.3692L26.4932 7.05738C26.4935 7.05707 26.4937 7.05671 26.4941 7.05641C26.8931 6.6571 26.8919 6.00824 26.494 5.61026Z" fill="#C3CEE2"/>
</svg>
