<svg width="28" height="15" viewBox="0 0 28 15" fill="none" xmlns="http://www.w3.org/2000/svg">
<path d="M26.7021 6.61026C26.7018 6.60995 26.7015 6.6096 26.7012 6.60929L21.3944 1.29746C20.9968 0.899531 20.3537 0.901013 19.958 1.30093C19.5623 1.7008 19.5638 2.34757 19.9614 2.74555L23.5244 6.31183H2.01562C1.4547 6.31183 1 6.76916 1 7.33333C1 7.89751 1.4547 8.35484 2.01562 8.35484H23.5244L19.9615 11.9211C19.5639 12.3191 19.5624 12.9659 19.9581 13.3657C20.3538 13.7657 20.9969 13.7671 21.3944 13.3692L26.7012 8.05738C26.7015 8.05707 26.7018 8.05671 26.7022 8.05641C27.0999 7.6571 27.0987 7.00824 26.7021 6.61026Z" fill="white" stroke="black"/>
</svg>
