<svg width="18" height="19" viewBox="0 0 18 19" fill="#fff" xmlns="http://www.w3.org/2000/svg">
<path fill-rule="evenodd" clip-rule="evenodd" d="M9.0001 8.4072L1.62691 1.034C1.31449 0.721583 0.816591 0.71295 0.514822 1.01472C0.213054 1.31649 0.221687 1.81438 0.534107 2.1268L7.9073 9.5L0.534107 16.8732C0.221688 17.1856 0.213054 17.6835 0.514822 17.9853C0.816591 18.287 1.31449 18.2784 1.62691 17.966L9.0001 10.5928L16.3733 17.966C16.6857 18.2784 17.1836 18.287 17.4854 17.9853C17.7872 17.6835 17.7785 17.1856 17.4661 16.8732L10.0929 9.5L17.4661 2.1268C17.7785 1.81439 17.7872 1.31649 17.4854 1.01472C17.1836 0.71295 16.6857 0.721584 16.3733 1.034L9.0001 8.4072Z" fill="white"/>
</svg>
