<svg width="27" height="13" viewBox="0 0 27 13" fill="none" xmlns="http://www.w3.org/2000/svg">
<path d="M0.505978 7.38974C0.506283 7.39005 0.506536 7.3904 0.506893 7.39071L5.83091 12.7025C6.22976 13.1005 6.87489 13.099 7.2719 12.6991C7.66887 12.2992 7.66735 11.6524 7.26849 11.2545L3.69395 7.68817L25.2723 7.68817C25.8351 7.68817 26.2913 7.23084 26.2913 6.66667C26.2913 6.10249 25.8351 5.64516 25.2723 5.64516L3.694 5.64516L7.26844 2.07888C7.66729 1.6809 7.66882 1.03413 7.27185 0.634265C6.87484 0.234294 6.22966 0.232916 5.83086 0.630793L0.506844 5.94262C0.506538 5.94293 0.506283 5.94329 0.505926 5.94359C0.106869 6.3429 0.108143 6.99176 0.505978 7.38974Z" fill="#C3CEE2"/>
</svg>
